. 
  
http://www.torrenting.com/        :     Greatest Movie Tracker on The Net!!!
 
http://www.Torrenting.com          :     Once & For all ;)


               www . Torrenting . Com 

(((((((((((((= Enjoy No RAR releases =))))))))))))))))))))


...................................NFO:....................................
                                       
 

                  ::::::::::::  EP1C Presents  ::::::::::::

::File:: 5.Days.of.War.2011.DVDRip.AC3.XViD-EP1C

::Source:::::::: Thanks
::Language:::::: English
::Subs:::::::::: English included.
::IMDB:::::::::: http://www.imdb.com/title/tt1486193/

A drama set centered around the war between Russia and Georgia, and focused 
on an American journalist, his cameraman, and a Georgian native who become 
caught in the crossfire.

::Specs:::::::::

Format                           : AVI
Format/Info                      : Audio Video Interleave
File size                        : 1.37 GiB
Duration                         : 1h 48mn
Overall bit rate                 : 1 807 Kbps
Writing application              : VirtualDubMod 1.5.10.2 (build 2540/release)
Writing library                  : VirtualDubMod build 2540/release

Video
ID                               : 0
Format                           : MPEG-4 Visual
Format profile                   : Advanced Simple@L5
Format settings, BVOP            : Yes
Format settings, QPel            : No
Format settings, GMC             : No warppoints
Format settings, Matrix          : Default (MPEG)
Muxing mode                      : Packed bitstream
Codec ID                         : XVID
Codec ID/Hint                    : XviD
Duration                         : 1h 48mn
Bit rate                         : 1 414 Kbps
Width                            : 704 pixels
Height                           : 288 pixels
Display aspect ratio             : 2.40:1
Frame rate                       : 25.000 fps
Color space                      : YUV
Chroma subsampling               : 4:2:0
Bit depth                        : 8 bits
Scan type                        : Progressive
Bits/(Pixel*Frame)               : 0.279
Stream size                      : 1.07 GiB (78%)
Writing library                  : XviD 58

Audio
ID                               : 1
Format                           : AC-3
Format/Info                      : Audio Coding 3
Mode extension                   : CM (complete main)
Codec ID                         : 2000
Duration                         : 1h 48mn
Bit rate mode                    : Constant
Bit rate                         : 384 Kbps
Channel(s)                       : 6 channels
Channel positions                : Front: L C R, Side: L R, LFE
Sampling rate                    : 48.0 KHz
Bit depth                        : 16 bits
Stream size                      : 298 MiB (21%)
Alignment                        : Split accross interleaves
Interleave, duration             : 40 ms (1.00 video frame)
Interleave, preload duration     : 500 ms

::NOTES::::::::: 
Presenting 5 Days of War aka August DVDRip.
Enjoy. //EP1C

:: Got something we might be interested in? contact us: epic@hushmail.me ::

::::::::::::::::::::::::::::::::  RESPECT  :::::::::::::::::::::::::::::::::
IMAGiNE, Rx, FLAWL3SS, ViSiON, HiVE, bobwhite, Wobferry, Vik, OneTwo & All Our Friends!

                 ::::::::::::::::  We Are  ::::::::::::::::  
               :::::: Surpassing the usual or ordinary ::::::
::::::::::::::::::    Heroic and impressive in quality    ::::::::::::::::::     
 ::::::::::::::::::::::::::::::::   EP1C   ::::::::::::::::::::::::::::::::
